<!DOCTYPE svg PUBLIC "-//W3C//DTD SVG 20010904//EN" "http://www.w3.org/TR/2001/REC-SVG-20010904/DTD/svg10.dtd">
<svg version="1.0" xmlns="http://www.w3.org/2000/svg" width="256px" height="256px" viewBox="0 0 2560 2560" preserveAspectRatio="xMidYMid meet">
<g id="layer101" fill="#040403" stroke="none">
 <path d="M425 2063 c-109 -57 -151 -157 -105 -248 11 -22 20 -40 20 -41 0 -1 -20 -14 -44 -28 -24 -14 -58 -47 -75 -73 -56 -85 -38 -155 68 -256 54 -51 61 -63 61 -96 0 -88 72 -291 104 -291 7 0 13 -12 13 -30 0 -47 76 -188 138 -258 94 -103 231 -189 390 -243 65 -22 84 -24 285 -24 201 0 220 2 285 24 159 54 296 140 390 243 62 70 138 211 138 258 0 18 6 30 13 30 32 0 104 203 104 291 0 33 7 45 61 96 106 101 124 171 68 256 -17 26 -51 59 -75 73 -24 14 -44 27 -44 28 0 1 9 19 20 41 24 48 26 112 3 145 -102 153 -258 162 -412 24 l-50 -45 -38 25 c-103 68 -272 107 -463 107 -191 0 -360 -39 -463 -107 l-38 -25 -50 45 c-74 66 -140 96 -213 96 -36 -1 -74 -7 -91 -17z"/>
 </g>
<g id="layer102" fill="#485137" stroke="none">
 <path d="M425 2063 c-109 -57 -151 -157 -105 -248 11 -22 20 -40 20 -41 0 -1 -20 -14 -44 -28 -24 -14 -58 -47 -75 -73 -56 -85 -38 -155 68 -256 54 -51 61 -63 61 -96 0 -88 72 -291 104 -291 7 0 13 -12 13 -30 0 -47 76 -188 138 -258 94 -103 231 -189 390 -243 65 -22 84 -24 285 -24 201 0 220 2 285 24 159 54 296 140 390 243 62 70 138 211 138 258 0 18 6 30 13 30 32 0 104 203 104 291 0 33 7 45 61 96 106 101 124 171 68 256 -17 26 -51 59 -75 73 -24 14 -44 27 -44 28 0 1 9 19 20 41 24 48 26 112 3 145 -102 153 -258 162 -412 24 l-50 -45 -38 25 c-103 68 -272 107 -463 107 -191 0 -360 -39 -463 -107 l-38 -25 -50 45 c-74 66 -140 96 -213 96 -36 -1 -74 -7 -91 -17z m1080 -108 c80 -22 171 -68 220 -110 36 -31 33 -30 -28 10 -37 24 -105 57 -150 72 -77 25 -93 27 -257 27 -140 1 -188 -3 -240 -17 -79 -23 -172 -68 -225 -110 -22 -17 -33 -23 -25 -12 44 54 188 125 310 151 86 18 313 12 395 -11z m-376 -322 c64 -49 83 -128 44 -196 -26 -45 -99 -80 -148 -71 -67 12 -125 80 -125 146 0 111 141 186 229 121z m448 8 c70 -32 103 -124 68 -190 -38 -75 -116 -105 -189 -72 -118 52 -119 214 -1 267 41 18 73 17 122 -5z"/>
 <path d="M1100 1503 c-51 -19 -81 -93 -44 -107 44 -17 104 22 104 68 0 21 -26 49 -42 45 -2 0 -10 -3 -18 -6z"/>
 <path d="M1543 1490 c-55 -33 -53 -100 2 -100 27 0 72 33 80 61 7 21 -18 59 -39 59 -6 0 -26 -9 -43 -20z"/>
 </g>
<g id="layer103" fill="#687746" stroke="none">
 <path d="M425 2063 c-109 -57 -151 -158 -105 -248 19 -37 20 -41 4 -50 -34 -20 -106 -89 -120 -116 -33 -65 -9 -138 74 -221 31 -32 59 -58 63 -58 4 0 12 28 18 63 14 78 59 172 106 217 l36 35 20 -25 c67 -86 111 -231 113 -370 1 -86 -1 -99 -26 -141 -24 -41 -105 -109 -130 -109 -4 0 -8 -7 -8 -15 0 -12 21 -14 123 -14 89 0 143 -6 199 -20 91 -24 125 -40 199 -97 124 -95 169 -176 177 -320 5 -106 3 -104 112 -104 109 0 107 -2 112 104 8 144 53 225 177 320 74 57 108 73 199 97 56 14 110 20 200 20 101 0 122 2 122 14 0 8 -4 15 -8 15 -25 0 -106 68 -130 109 -25 42 -27 55 -26 141 2 139 46 284 113 370 l20 25 36 -35 c47 -45 92 -139 106 -217 6 -35 14 -63 18 -63 4 0 32 26 63 58 83 83 107 156 74 221 -14 27 -86 96 -120 116 -16 9 -15 13 4 50 24 48 26 112 3 145 -102 153 -258 162 -412 24 l-50 -45 -38 25 c-103 68 -272 107 -463 107 -191 0 -360 -39 -463 -107 l-38 -25 -50 45 c-74 66 -140 96 -213 96 -36 -1 -74 -7 -91 -17z m1050 -98 c93 -19 220 -83 270 -136 l40 -41 -50 37 c-112 85 -235 124 -410 132 -199 9 -372 -36 -495 -128 -41 -31 -49 -35 -30 -14 59 66 189 130 311 154 73 14 287 12 364 -4z m-350 -327 c83 -55 96 -154 29 -228 -48 -53 -104 -62 -171 -29 -55 28 -83 74 -83 135 0 110 132 182 225 122z m455 4 c107 -53 107 -204 -1 -260 -34 -18 -54 -22 -89 -18 -68 9 -130 78 -130 144 0 41 41 113 76 133 38 23 100 23 144 1z m-702 -463 c39 -36 96 -79 129 -96 l58 -32 -30 -12 c-17 -6 -65 -14 -108 -17 -100 -6 -157 14 -197 70 -49 67 -62 188 -29 261 l12 26 47 -67 c26 -38 79 -97 118 -133z m998 108 c15 -108 -39 -221 -120 -252 -51 -20 -177 -17 -231 4 l-30 12 60 32 c68 36 215 176 260 249 l30 47 13 -24 c7 -13 15 -44 18 -68z m-551 -331 c62 -26 93 -125 61 -199 -22 -52 -52 -72 -106 -72 -54 0 -84 20 -106 72 -31 73 -1 172 59 198 41 18 50 18 92 1z"/>
 <path d="M1061 1474 c-25 -32 -27 -57 -5 -74 34 -29 114 34 99 79 -10 32 -67 29 -94 -5z"/>
 <path d="M1542 1494 c-7 -3 -20 -20 -28 -37 -16 -29 -16 -32 6 -49 30 -25 47 -23 76 9 35 38 30 77 -11 80 -16 1 -36 -1 -43 -3z"/>
 </g>
<g id="layer104" fill="#a7bf70" stroke="none">
 <path d="M1174 2070 c-184 -15 -337 -75 -429 -167 -129 -128 -146 -281 -54 -466 128 -255 365 -427 589 -427 224 0 461 172 589 427 92 185 75 338 -54 466 -87 87 -239 149 -395 162 -136 12 -157 12 -246 5z m312 -105 c34 -8 88 -26 120 -40 62 -28 159 -97 168 -121 8 -20 4 -18 -40 17 -111 88 -252 131 -439 133 -192 1 -353 -43 -460 -126 -70 -55 -70 -55 -52 -28 56 80 207 154 372 180 77 12 253 4 331 -15z m-355 -328 c124 -83 64 -277 -86 -277 -147 0 -200 202 -73 280 46 28 115 26 159 -3z m457 3 c127 -78 74 -280 -73 -280 -114 0 -187 118 -137 220 37 75 138 104 210 60z"/>
 <path d="M1065 1475 c-16 -15 -25 -34 -23 -48 2 -18 9 -22 42 -22 74 0 104 85 33 93 -18 2 -35 -5 -52 -23z"/>
 <path d="M1532 1477 c-26 -28 -29 -63 -4 -75 35 -19 96 28 90 70 -5 34 -56 37 -86 5z"/>
 </g>
<g id="layer105" fill="#fdfdfc" stroke="none">
 <path d="M970 1741 c-50 -16 -87 -40 -123 -80 -78 -86 -76 -214 5 -305 86 -99 240 -105 337 -13 117 111 84 311 -63 381 -43 20 -121 29 -156 17z m161 -104 c124 -83 64 -277 -86 -277 -147 0 -200 202 -73 280 46 28 115 26 159 -3z"/>
 <path d="M1065 1475 c-16 -15 -25 -34 -23 -48 2 -18 9 -22 42 -22 74 0 104 85 33 93 -18 2 -35 -5 -52 -23z"/>
 <path d="M1471 1739 c-62 -19 -117 -65 -145 -121 -79 -159 31 -339 208 -339 71 0 129 25 174 77 81 91 83 219 5 305 -64 71 -162 102 -242 78z m117 -99 c127 -78 74 -280 -73 -280 -114 0 -187 118 -137 220 37 75 138 104 210 60z"/>
 <path d="M1532 1477 c-26 -28 -29 -63 -4 -75 35 -19 96 28 90 70 -5 34 -56 37 -86 5z"/>
 </g>

</svg>